<svg aria-hidden="true" style="position: absolute; width: 0; height: 0; overflow: hidden;" version="1.1" xmlns="http://www.w3.org/2000/svg" xmlns:xlink="http://www.w3.org/1999/xlink">
<defs>
<symbol id="icon-home" viewBox="0 0 41 32">
<path d="M10.328 7.834c3.237 0 5.709 0.794 7.415 2.383 1.736 1.589 2.604 3.958 2.604 7.106v14.124h-4.017v-3.090c-0.706 1.089-1.721 1.927-3.046 2.516-1.295 0.559-2.84 0.839-4.634 0.839-2.619 0-4.723-0.633-6.312-1.898-1.56-1.265-2.339-2.928-2.339-4.988s0.75-3.708 2.251-4.943c1.501-1.265 3.884-1.898 7.15-1.898h6.709v-0.839c0-1.824-0.53-3.222-1.589-4.193s-2.619-1.457-4.679-1.457c-1.383 0-2.737 0.235-4.061 0.706-1.324 0.441-2.442 1.045-3.354 1.81l-1.766-3.178c1.206-0.971 2.648-1.707 4.326-2.207 1.677-0.53 3.457-0.794 5.341-0.794zM9.357 28.447c1.618 0 3.016-0.353 4.193-1.059 1.177-0.736 2.030-1.766 2.56-3.090v-3.266h-6.532c-3.59 0-5.385 1.206-5.385 3.619 0 1.177 0.456 2.104 1.368 2.781s2.178 1.015 3.796 1.015z"></path>
<path d="M40.607 19.884c0 0.324-0.029 0.75-0.088 1.28h-18.979c0.265 2.060 1.162 3.722 2.692 4.988 1.559 1.236 3.487 1.854 5.782 1.854 2.795 0 5.046-0.942 6.753-2.825l2.339 2.737c-1.059 1.236-2.383 2.177-3.972 2.825-1.56 0.647-3.31 0.971-5.252 0.971-2.472 0-4.664-0.5-6.577-1.501-1.913-1.030-3.399-2.457-4.458-4.281-1.030-1.824-1.545-3.884-1.545-6.179 0-2.266 0.5-4.311 1.501-6.135 1.030-1.824 2.428-3.237 4.193-4.237 1.795-1.030 3.811-1.545 6.047-1.545s4.222 0.515 5.959 1.545c1.766 1 3.134 2.413 4.105 4.237 1 1.824 1.501 3.914 1.501 6.268zM29.043 11.41c-2.030 0-3.737 0.618-5.12 1.854-1.354 1.236-2.148 2.854-2.383 4.855h15.007c-0.235-1.972-1.045-3.575-2.428-4.811-1.354-1.265-3.046-1.898-5.076-1.898z"></path>
<path d="M37.517 3.31h-15.448v-3.31h15.448v3.31z"></path>
</symbol>
<symbol id="icon-phone" viewBox="0 0 32 32">
<path d="M22 20c-2 2-2 4-4 4s-4-2-6-4-4-4-4-6 2-2 4-4-4-8-6-8-6 6-6 6c0 4 4.109 12.109 8 16s12 8 16 8c0 0 6-4 6-6s-6-8-8-6z"></path>
</symbol>
<symbol id="icon-facebook" viewBox="0 0 32 32">
<path d="M29 0h-26c-1.65 0-3 1.35-3 3v26c0 1.65 1.35 3 3 3h13v-14h-4v-4h4v-2c0-3.306 2.694-6 6-6h4v4h-4c-1.1 0-2 0.9-2 2v2h6l-1 4h-5v14h9c1.65 0 3-1.35 3-3v-26c0-1.65-1.35-3-3-3z"></path>
</symbol>
<symbol id="icon-instagram" viewBox="0 0 32 32">
<path d="M16 2.881c4.275 0 4.781 0.019 6.462 0.094 1.563 0.069 2.406 0.331 2.969 0.55 0.744 0.288 1.281 0.638 1.837 1.194 0.563 0.563 0.906 1.094 1.2 1.838 0.219 0.563 0.481 1.412 0.55 2.969 0.075 1.688 0.094 2.194 0.094 6.463s-0.019 4.781-0.094 6.463c-0.069 1.563-0.331 2.406-0.55 2.969-0.288 0.744-0.637 1.281-1.194 1.837-0.563 0.563-1.094 0.906-1.837 1.2-0.563 0.219-1.413 0.481-2.969 0.55-1.688 0.075-2.194 0.094-6.463 0.094s-4.781-0.019-6.463-0.094c-1.563-0.069-2.406-0.331-2.969-0.55-0.744-0.288-1.281-0.637-1.838-1.194-0.563-0.563-0.906-1.094-1.2-1.837-0.219-0.563-0.481-1.413-0.55-2.969-0.075-1.688-0.094-2.194-0.094-6.463s0.019-4.781 0.094-6.463c0.069-1.563 0.331-2.406 0.55-2.969 0.288-0.744 0.638-1.281 1.194-1.838 0.563-0.563 1.094-0.906 1.838-1.2 0.563-0.219 1.412-0.481 2.969-0.55 1.681-0.075 2.188-0.094 6.463-0.094zM16 0c-4.344 0-4.887 0.019-6.594 0.094-1.7 0.075-2.869 0.35-3.881 0.744-1.056 0.412-1.95 0.956-2.837 1.85-0.894 0.888-1.438 1.781-1.85 2.831-0.394 1.019-0.669 2.181-0.744 3.881-0.075 1.713-0.094 2.256-0.094 6.6s0.019 4.887 0.094 6.594c0.075 1.7 0.35 2.869 0.744 3.881 0.413 1.056 0.956 1.95 1.85 2.837 0.887 0.887 1.781 1.438 2.831 1.844 1.019 0.394 2.181 0.669 3.881 0.744 1.706 0.075 2.25 0.094 6.594 0.094s4.888-0.019 6.594-0.094c1.7-0.075 2.869-0.35 3.881-0.744 1.050-0.406 1.944-0.956 2.831-1.844s1.438-1.781 1.844-2.831c0.394-1.019 0.669-2.181 0.744-3.881 0.075-1.706 0.094-2.25 0.094-6.594s-0.019-4.887-0.094-6.594c-0.075-1.7-0.35-2.869-0.744-3.881-0.394-1.063-0.938-1.956-1.831-2.844-0.887-0.887-1.781-1.438-2.831-1.844-1.019-0.394-2.181-0.669-3.881-0.744-1.712-0.081-2.256-0.1-6.6-0.1v0z"></path>
<path d="M16 7.781c-4.537 0-8.219 3.681-8.219 8.219s3.681 8.219 8.219 8.219 8.219-3.681 8.219-8.219c0-4.537-3.681-8.219-8.219-8.219zM16 21.331c-2.944 0-5.331-2.387-5.331-5.331s2.387-5.331 5.331-5.331c2.944 0 5.331 2.387 5.331 5.331s-2.387 5.331-5.331 5.331z"></path>
<path d="M26.462 7.456c0 1.060-0.859 1.919-1.919 1.919s-1.919-0.859-1.919-1.919c0-1.060 0.859-1.919 1.919-1.919s1.919 0.859 1.919 1.919z"></path>
</symbol>
</defs>
</svg>
